<?xml version="1.0" standalone="no"?><!DOCTYPE svg PUBLIC "-//W3C//DTD SVG 1.1//EN" "http://www.w3.org/Graphics/SVG/1.1/DTD/svg11.dtd">
<svg viewBox="0 0 1024 1024" version="1.1" fill="currentColor"
  xmlns="http://www.w3.org/2000/svg"
  xmlns:xlink="http://www.w3.org/1999/xlink">
  <path d="M853.376 0.170667h170.282667v170.666666h-170.24v-170.666666z m-341.205333 0h170.24v170.666666h-170.24v-170.666666zM170.410667 0h170.325333v170.666667H170.453333V0z m512.512 171.136h170.282666v170.666667h-170.24v-170.666667z m-341.333334 0h170.24v170.666667h-170.24v-170.666667zM0 170.965333h170.24v170.666667H0v-170.666667z m853.546667 171.136h170.282666v170.666667h-170.24v-170.666667z m-341.205334 0h170.24v170.666667h-170.24v-170.666667z m-341.76-0.170666H340.906667v170.666666H170.624v-170.666666zM683.093333 512.426667h170.282667v170.666666h-170.24v-170.666666z m-341.205333 0h170.24v170.666666h-170.24v-170.666666z m-341.76-0.170667h170.325333v170.666667H0.170667v-170.666667z m853.589333 170.666667H1024v170.624h-170.24v-170.666667z m-341.205333 0h170.24v170.624h-170.24v-170.666667zM170.752 682.666667h170.282667v170.666666h-170.24v-170.666666z m512.512 170.666666h170.282667V1024h-170.24v-170.666667z m-341.205333 0h170.24V1024h-170.24v-170.666667z m-341.76-0.170666H170.666667v170.666666H0.341333v-170.666666z"></path>
</svg>