<svg preserveAspectRatio="xMidYMid meet"
  xmlns="http://www.w3.org/2000/svg" fill="none" viewBox="0 0 48 48">  <!--?lit$751535162$-->
  <g>
    <path fill="currentColor" d="M10.25 30.858V26H5a1 1 0 0 1-1-1v-2a1 1 0 0 1 1-1h5.25v-4.858c0-.51 0-.992.033-1.398.036-.442.12-.945.376-1.447a3.75 3.75 0 0 1 1.638-1.638c.502-.256 1.005-.34 1.447-.376.406-.033.888-.033 1.398-.033h3.716c.51 0 .992 0 1.398.033.442.036.945.12 1.447.376a3.75 3.75 0 0 1 1.638 1.638c.256.502.34 1.005.376 1.447.033.406.033.888.033 1.398V22H30V7.2c0-1.12 0-1.68.218-2.108a2 2 0 0 1 .874-.874C31.52 4 32.08 4 33.2 4h1.6c1.12 0 1.68 0 2.108.218a2 2 0 0 1 .874.874C38 5.52 38 6.08 38 7.2V22h5a1 1 0 0 1 1 1v2a1 1 0 0 1-1 1h-5v14.8c0 1.12 0 1.68-.218 2.108a2 2 0 0 1-.874.874C36.48 44 35.92 44 34.8 44h-1.6c-1.12 0-1.68 0-2.108-.218a2 2 0 0 1-.874-.874C30 42.48 30 41.92 30 40.8V26h-6.25v4.858c0 .51 0 .992-.033 1.398-.036.442-.12.945-.376 1.447a3.75 3.75 0 0 1-1.639 1.638c-.501.256-1.004.34-1.446.376-.406.033-.888.033-1.398.033h-3.716c-.51 0-.992 0-1.398-.033-.442-.036-.945-.12-1.447-.376a3.75 3.75 0 0 1-1.638-1.639c-.256-.501-.34-1.004-.376-1.446-.033-.406-.033-.888-.033-1.398Zm3.542 1.28c.018.028.042.052.07.07a1.6 1.6 0 0 0 .167.02c.246.02.582.022 1.171.022h3.6c.589 0 .925-.001 1.171-.021a1.6 1.6 0 0 0 .168-.021.247.247 0 0 0 .069-.07 1.6 1.6 0 0 0 .02-.167c.02-.246.022-.582.022-1.171V17.2c0-.589-.001-.925-.021-1.171a1.603 1.603 0 0 0-.021-.168.247.247 0 0 0-.07-.069 1.6 1.6 0 0 0-.167-.02c-.246-.02-.582-.022-1.171-.022h-3.6c-.589 0-.925.001-1.171.021a1.603 1.603 0 0 0-.168.021.25.25 0 0 0-.069.07 1.603 1.603 0 0 0-.02.167c-.02.246-.022.582-.022 1.171v13.6c0 .589.001.925.021 1.171a1.6 1.6 0 0 0 .021.168Z" clip-rule="evenodd" fill-rule="evenodd" data-follow-fill="currentColor"></path>
  </g>
</svg>