<svg preserveAspectRatio="xMidYMid meet"
  xmlns="http://www.w3.org/2000/svg" fill="none" viewBox="0 0 48 48">  <!--?lit$751535162$-->
  <g>
    <path fill="currentColor" d="M31.092 8.218C31.52 8 32.08 8 33.2 8h1.6c1.12 0 1.68 0 2.108.218a2 2 0 0 1 .874.874C38 9.52 38 10.08 38 11.2v19.6c0 1.12 0 1.68-.218 2.108a2 2 0 0 1-.874.874C36.48 34 35.92 34 34.8 34h-1.6c-1.12 0-1.68 0-2.108-.218a2 2 0 0 1-.874-.874C30 32.48 30 31.92 30 30.8V11.2c0-1.12 0-1.68.218-2.108a2 2 0 0 1 .874-.874Z" data-follow-fill="currentColor"></path>
    <path fill="currentColor" d="M10.25 21.142v7.716c0 .51 0 .992.033 1.398.036.442.12.945.376 1.447a3.75 3.75 0 0 0 1.638 1.638c.502.256 1.005.34 1.447.376.406.033.888.033 1.398.033h3.716c.51 0 .992 0 1.398-.033.442-.036.945-.12 1.447-.376a3.75 3.75 0 0 0 1.638-1.639c.256-.501.34-1.004.376-1.446.033-.406.033-.888.033-1.398v-7.716c0-.51 0-.992-.033-1.398-.036-.442-.12-.945-.376-1.447a3.75 3.75 0 0 0-1.639-1.638c-.501-.256-1.004-.34-1.446-.376a18.177 18.177 0 0 0-1.398-.033h-3.716c-.51 0-.992 0-1.398.033-.442.036-.945.12-1.447.376a3.75 3.75 0 0 0-1.638 1.639c-.256.501-.34 1.004-.376 1.446-.033.406-.033.888-.033 1.398Zm3.542-1.28a.247.247 0 0 1 .07-.07 1.6 1.6 0 0 1 .167-.02c.246-.02.582-.022 1.171-.022h3.6c.589 0 .925.001 1.171.021a1.6 1.6 0 0 1 .168.021c.027.018.05.042.069.07a1.6 1.6 0 0 1 .02.167c.02.246.022.582.022 1.171v7.6c0 .589-.001.925-.021 1.171a1.6 1.6 0 0 1-.021.168.247.247 0 0 1-.07.069 1.6 1.6 0 0 1-.167.02c-.246.02-.582.022-1.171.022h-3.6c-.589 0-.925-.001-1.171-.021a1.6 1.6 0 0 1-.168-.021.247.247 0 0 1-.069-.07 1.6 1.6 0 0 1-.02-.167c-.02-.246-.022-.582-.022-1.171v-7.6c0-.589.001-.925.021-1.171a1.6 1.6 0 0 1 .021-.168Z" clip-rule="evenodd" fill-rule="evenodd" data-follow-fill="currentColor"></path>
    <path fill="currentColor" d="M5 38a1 1 0 0 0-1 1v2a1 1 0 0 0 1 1h38a1 1 0 0 0 1-1v-2a1 1 0 0 0-1-1H5Z" data-follow-fill="currentColor"></path>
  </g>
</svg>