<svg preserveAspectRatio="xMidYMid meet"
  xmlns="http://www.w3.org/2000/svg" fill="none" viewBox="0 0 48 48">  <!--?lit$751535162$-->
  <g>
    <path fill="currentColor" d="M38 5.6c0-.56 0-.84.109-1.054a1 1 0 0 1 .437-.437C38.76 4 39.04 4 39.6 4h.8c.56 0 .84 0 1.054.109a1 1 0 0 1 .437.437C42 4.76 42 5.04 42 5.6v36.8c0 .56 0 .84-.109 1.054a1 1 0 0 1-.437.437C41.24 44 40.96 44 40.4 44h-.8c-.56 0-.84 0-1.054-.109a1 1 0 0 1-.437-.437C38 43.24 38 42.96 38 42.4V5.6Z" data-follow-fill="currentColor"></path>
    <path fill="currentColor" d="M21.142 10.25h7.716c.51 0 .992 0 1.398.033.442.036.945.12 1.447.376a3.75 3.75 0 0 1 1.638 1.638c.256.502.34 1.005.376 1.447.033.406.033.888.033 1.398v3.716c0 .51 0 .992-.033 1.398-.036.442-.12.945-.376 1.447a3.75 3.75 0 0 1-1.639 1.638c-.501.256-1.004.34-1.446.376-.406.033-.888.033-1.398.033h-7.716c-.51 0-.992 0-1.398-.033-.442-.036-.945-.12-1.447-.376a3.75 3.75 0 0 1-1.638-1.639c-.256-.501-.34-1.004-.376-1.446a18.176 18.176 0 0 1-.033-1.398v-3.716c0-.51 0-.992.033-1.398.036-.442.12-.945.376-1.447a3.75 3.75 0 0 1 1.639-1.638c.501-.256 1.004-.34 1.446-.376.406-.033.888-.033 1.398-.033Zm-1.28 3.542a.247.247 0 0 0-.07.07 1.6 1.6 0 0 0-.02.167c-.02.246-.022.582-.022 1.171v3.6c0 .589.001.925.021 1.171a1.6 1.6 0 0 0 .021.168c.018.027.042.05.07.069a1.6 1.6 0 0 0 .167.02c.246.02.582.022 1.171.022h7.6c.589 0 .925-.001 1.171-.021a1.6 1.6 0 0 0 .168-.021.247.247 0 0 0 .069-.07 1.6 1.6 0 0 0 .02-.167c.02-.246.022-.582.022-1.171v-3.6c0-.589-.001-.925-.021-1.171a1.6 1.6 0 0 0-.021-.168.247.247 0 0 0-.07-.069 1.6 1.6 0 0 0-.167-.02c-.246-.02-.582-.022-1.171-.022h-7.6c-.589 0-.925.001-1.171.021a1.6 1.6 0 0 0-.168.021Z" clip-rule="evenodd" fill-rule="evenodd" data-follow-fill="currentColor"></path>
    <path fill="currentColor" d="M8.218 31.092C8 31.52 8 32.08 8 33.2v1.6c0 1.12 0 1.68.218 2.108a2 2 0 0 0 .874.874C9.52 38 10.08 38 11.2 38h19.6c1.12 0 1.68 0 2.108-.218a2 2 0 0 0 .874-.874C34 36.48 34 35.92 34 34.8v-1.6c0-1.12 0-1.68-.218-2.108a2 2 0 0 0-.874-.874C32.48 30 31.92 30 30.8 30H11.2c-1.12 0-1.68 0-2.108.218a2 2 0 0 0-.874.874Z" data-follow-fill="currentColor"></path>
  </g>
</svg>