<svg preserveAspectRatio="xMidYMid meet"
  xmlns="http://www.w3.org/2000/svg" fill="none" viewBox="0 0 48 48">  <!--?lit$751535162$-->
  <g>
    <path fill="currentColor" d="M11 5.6c0-.56 0-.84-.109-1.054a1 1 0 0 0-.437-.437C10.24 4 9.96 4 9.4 4h-.8c-.56 0-.84 0-1.054.109a1 1 0 0 0-.437.437C7 4.76 7 5.04 7 5.6v36.8c0 .56 0 .84.109 1.054a1 1 0 0 0 .437.437C7.76 44 8.04 44 8.6 44h.8c.56 0 .84 0 1.054-.109a1 1 0 0 0 .437-.437C11 43.24 11 42.96 11 42.4V5.6Z" data-follow-fill="currentColor"></path>
    <path fill="currentColor" d="M27.858 10.25h-7.716c-.51 0-.992 0-1.398.033-.442.036-.945.12-1.447.376a3.75 3.75 0 0 0-1.638 1.638c-.256.502-.34 1.005-.376 1.447-.033.406-.033.888-.033 1.398v3.716c0 .51 0 .992.033 1.398.036.442.12.945.376 1.447a3.75 3.75 0 0 0 1.638 1.638c.502.256 1.005.34 1.447.376.406.033.888.033 1.398.033h7.716c.51 0 .992 0 1.398-.033.442-.036.945-.12 1.447-.376a3.75 3.75 0 0 0 1.638-1.639c.256-.501.34-1.004.376-1.446.033-.406.033-.888.033-1.398v-3.716c0-.51 0-.992-.033-1.398-.036-.442-.12-.945-.376-1.447a3.75 3.75 0 0 0-1.639-1.638c-.501-.256-1.004-.34-1.446-.376a18.177 18.177 0 0 0-1.398-.033Zm1.28 3.542c.028.018.052.042.07.07a1.6 1.6 0 0 1 .02.167c.02.246.022.582.022 1.171v3.6c0 .589-.001.925-.021 1.171a1.6 1.6 0 0 1-.021.168.247.247 0 0 1-.07.069 1.6 1.6 0 0 1-.167.02c-.246.02-.582.022-1.171.022h-7.6c-.589 0-.925-.001-1.171-.021a1.6 1.6 0 0 1-.168-.021.247.247 0 0 1-.069-.07 1.6 1.6 0 0 1-.02-.167c-.02-.246-.022-.582-.022-1.171v-3.6c0-.589.001-.925.021-1.171a1.6 1.6 0 0 1 .021-.168.247.247 0 0 1 .07-.069 1.6 1.6 0 0 1 .167-.02c.246-.02.582-.022 1.171-.022h7.6c.589 0 .925.001 1.171.021a1.6 1.6 0 0 1 .168.021Z" clip-rule="evenodd" fill-rule="evenodd" data-follow-fill="currentColor"></path>
    <path fill="currentColor" d="M40.782 31.092C41 31.52 41 32.08 41 33.2v1.6c0 1.12 0 1.68-.218 2.108a2 2 0 0 1-.874.874C39.48 38 38.92 38 37.8 38H18.2c-1.12 0-1.68 0-2.108-.218a2 2 0 0 1-.874-.874C15 36.48 15 35.92 15 34.8v-1.6c0-1.12 0-1.68.218-2.108a2 2 0 0 1 .874-.874C16.52 30 17.08 30 18.2 30h19.6c1.12 0 1.68 0 2.108.218a2 2 0 0 1 .874.874Z" data-follow-fill="currentColor"></path>
  </g>
</svg>