<svg preserveAspectRatio="xMidYMid meet"
  xmlns="http://www.w3.org/2000/svg" fill="none" viewBox="0 0 48 48">  <!--?lit$751535162$-->
  <g>
    <path fill="currentColor" d="M22 5.6c0-.56 0-.84.109-1.054a1 1 0 0 1 .437-.437C22.76 4 23.04 4 23.6 4h.8c.56 0 .84 0 1.054.109a1 1 0 0 1 .437.437C26 4.76 26 5.04 26 5.6v4.65h3.858c.51 0 .992 0 1.398.033.442.036.945.12 1.447.376a3.75 3.75 0 0 1 1.638 1.638c.256.502.34 1.005.376 1.447.033.406.033.888.033 1.398v3.716c0 .51 0 .992-.033 1.398-.036.442-.12.945-.376 1.447a3.75 3.75 0 0 1-1.639 1.638c-.501.256-1.004.34-1.446.376-.406.033-.888.033-1.398.033H26V30h14.8c1.12 0 1.68 0 2.108.218a2 2 0 0 1 .874.874C44 31.52 44 32.08 44 33.2v1.6c0 1.12 0 1.68-.218 2.108a2 2 0 0 1-.874.874C42.48 38 41.92 38 40.8 38H26v4.4c0 .56 0 .84-.109 1.054a1 1 0 0 1-.437.437C25.24 44 24.96 44 24.4 44h-.8c-.56 0-.84 0-1.054-.109a1 1 0 0 1-.437-.437C22 43.24 22 42.96 22 42.4V38H7.2c-1.12 0-1.68 0-2.108-.218a2 2 0 0 1-.874-.874C4 36.48 4 35.92 4 34.8v-1.6c0-1.12 0-1.68.218-2.108a2 2 0 0 1 .874-.874C5.52 30 6.08 30 7.2 30H22v-6.25h-3.858c-.51 0-.992 0-1.398-.033-.442-.036-.945-.12-1.447-.376a3.75 3.75 0 0 1-1.638-1.639c-.256-.501-.34-1.004-.376-1.446a18.176 18.176 0 0 1-.033-1.398v-3.716c0-.51 0-.992.033-1.398.036-.442.12-.945.376-1.447a3.75 3.75 0 0 1 1.638-1.638c.502-.256 1.005-.34 1.447-.376.406-.033.888-.033 1.398-.033H22V5.6Zm-5.139 8.192a.248.248 0 0 0-.069.07 1.6 1.6 0 0 0-.02.167c-.02.246-.022.582-.022 1.171v3.6c0 .589.001.925.021 1.171a1.6 1.6 0 0 0 .021.168c.018.027.042.05.07.069a1.6 1.6 0 0 0 .167.02c.246.02.582.022 1.171.022h11.6c.589 0 .925-.001 1.171-.021a1.6 1.6 0 0 0 .168-.021.247.247 0 0 0 .069-.07 1.6 1.6 0 0 0 .02-.167c.02-.246.022-.582.022-1.171v-3.6c0-.589-.001-.925-.021-1.171a1.603 1.603 0 0 0-.021-.168.248.248 0 0 0-.07-.069 1.6 1.6 0 0 0-.167-.02c-.246-.02-.582-.022-1.171-.022H18.2c-.589 0-.925.001-1.171.021a1.6 1.6 0 0 0-.168.021Z" clip-rule="evenodd" fill-rule="evenodd" data-follow-fill="currentColor"></path>
  </g>
</svg>