<svg preserveAspectRatio="xMidYMid meet"
  xmlns="http://www.w3.org/2000/svg" fill="none" viewBox="0 0 48 48">  <!--?lit$751535162$-->
  <g>
    <path fill="currentColor" d="M20.436 6.184C20 7.04 20 8.16 20 10.4v7.2c0 2.24 0 3.36.436 4.216a4 4 0 0 0 1.748 1.748C23.04 24 24.16 24 26.4 24h11.2c2.24 0 3.36 0 4.216-.436a4 4 0 0 0 1.748-1.748C44 20.96 44 19.84 44 17.6v-7.2c0-2.24 0-3.36-.436-4.216a4 4 0 0 0-1.748-1.748C40.96 4 39.84 4 37.6 4H26.4c-2.24 0-3.36 0-4.216.436a4 4 0 0 0-1.748 1.748ZM37.6 8H26.4c-1.186 0-1.835.003-2.301.041l-.053.005-.005.053C24.003 8.565 24 9.214 24 10.4v7.2c0 1.186.003 1.835.041 2.301l.005.053.053.005c.466.038 1.115.041 2.301.041h11.2c1.186 0 1.835-.003 2.301-.041l.053-.005.005-.053c.038-.466.041-1.115.041-2.301v-7.2c0-1.186-.003-1.835-.041-2.301l-.005-.053-.053-.005C39.435 8.003 38.786 8 37.6 8Z" clip-rule="evenodd" fill-rule="evenodd" data-follow-fill="currentColor"></path>
    <path fill="currentColor" d="M4.109 30.546C4 30.76 4 31.04 4 31.6v.8c0 .56 0 .84.109 1.054a1 1 0 0 0 .437.437C4.76 34 5.04 34 5.6 34h36.8c.56 0 .84 0 1.054-.109a1 1 0 0 0 .437-.437C44 33.24 44 32.96 44 32.4v-.8c0-.56 0-.84-.109-1.054a1 1 0 0 0-.437-.437C43.24 30 42.96 30 42.4 30H5.6c-.56 0-.84 0-1.054.109a1 1 0 0 0-.437.437ZM4.109 40.546C4 40.76 4 41.04 4 41.6v.8c0 .56 0 .84.109 1.054a1 1 0 0 0 .437.437C4.76 44 5.04 44 5.6 44h36.8c.56 0 .84 0 1.054-.109a1 1 0 0 0 .437-.437C44 43.24 44 42.96 44 42.4v-.8c0-.56 0-.84-.109-1.054a1 1 0 0 0-.437-.437C43.24 40 42.96 40 42.4 40H5.6c-.56 0-.84 0-1.054.109a1 1 0 0 0-.437.437ZM12.577 13.785c-.06-.157-.229-.287-.565-.546L5.546 8.262c-.497-.383-.745-.574-.953-.571a.6.6 0 0 0-.464.228C4 8.083 4 8.396 4 9.022v9.956c0 .626 0 .94.129 1.103a.6.6 0 0 0 .464.228c.208.003.456-.189.953-.57l6.466-4.978c.336-.26.504-.389.565-.546a.6.6 0 0 0 0-.43Z" data-follow-fill="currentColor"></path>
  </g>
</svg>