<svg preserveAspectRatio="xMidYMid meet"
  xmlns="http://www.w3.org/2000/svg" width="20" height="20" fill="none" viewBox="0 0 48 48">
  <g>
    <path fill="currentColor" d="M42.4 8c.56 0 .84 0 1.054.109a1 1 0 0 1 .437.437C44 8.76 44 9.04 44 9.6v.8c0 .56 0 .84-.109 1.054a1 1 0 0 1-.437.437C43.24 12 42.96 12 42.4 12H5.6c-.56 0-.84 0-1.054-.109a1 1 0 0 1-.437-.437C4 11.24 4 10.96 4 10.4v-.8c0-.56 0-.84.109-1.054a1 1 0 0 1 .437-.437C4.76 8 5.04 8 5.6 8h36.8ZM28.4 22c.56 0 .84 0 1.054.109a1 1 0 0 1 .437.437C30 22.76 30 23.04 30 23.6v.8c0 .56 0 .84-.109 1.054a1 1 0 0 1-.437.437C29.24 26 28.96 26 28.4 26H5.6c-.56 0-.84 0-1.054-.109a1 1 0 0 1-.437-.437C4 25.24 4 24.96 4 24.4v-.8c0-.56 0-.84.109-1.054a1 1 0 0 1 .437-.437C4.76 22 5.04 22 5.6 22h22.8ZM39.454 36.109C39.24 36 38.96 36 38.4 36H5.6c-.56 0-.84 0-1.054.109a1 1 0 0 0-.437.437C4 36.76 4 37.04 4 37.6v.8c0 .56 0 .84.109 1.054a1 1 0 0 0 .437.437C4.76 40 5.04 40 5.6 40h32.8c.56 0 .84 0 1.054-.109a1 1 0 0 0 .437-.437C40 39.24 40 38.96 40 38.4v-.8c0-.56 0-.84-.109-1.054a1 1 0 0 0-.437-.437Z" data-follow-fill="currentColor"></path>
  </g>
</svg>