<svg preserveAspectRatio="xMidYMid meet"
  xmlns="http://www.w3.org/2000/svg" width="20" height="20" fill="none" viewBox="0 0 48 48">
  <g>
    <path fill="currentColor" d="M42.4 8c.56 0 .84 0 1.054.109a1 1 0 0 1 .437.437C44 8.76 44 9.04 44 9.6v.8c0 .56 0 .84-.109 1.054a1 1 0 0 1-.437.437C43.24 12 42.96 12 42.4 12H5.6c-.56 0-.84 0-1.054-.109a1 1 0 0 1-.437-.437C4 11.24 4 10.96 4 10.4v-.8c0-.56 0-.84.109-1.054a1 1 0 0 1 .437-.437C4.76 8 5.04 8 5.6 8h36.8ZM35.4 22c.56 0 .84 0 1.054.109a1 1 0 0 1 .437.437C37 22.76 37 23.04 37 23.6v.8c0 .56 0 .84-.109 1.054a1 1 0 0 1-.437.437C36.24 26 35.96 26 35.4 26H12.6c-.56 0-.84 0-1.054-.109a1 1 0 0 1-.437-.437C11 25.24 11 24.96 11 24.4v-.8c0-.56 0-.84.109-1.054a1 1 0 0 1 .437-.437C11.76 22 12.04 22 12.6 22h22.8ZM41.454 36.109C41.24 36 40.96 36 40.4 36H7.6c-.56 0-.84 0-1.054.109a1 1 0 0 0-.437.437C6 36.76 6 37.04 6 37.6v.8c0 .56 0 .84.109 1.054a1 1 0 0 0 .437.437C6.76 40 7.04 40 7.6 40h32.8c.56 0 .84 0 1.054-.109a1 1 0 0 0 .437-.437C42 39.24 42 38.96 42 38.4v-.8c0-.56 0-.84-.109-1.054a1 1 0 0 0-.437-.437Z" data-follow-fill="currentColor"></path>
  </g>
</svg>