<svg preserveAspectRatio="xMidYMid meet"
  xmlns="http://www.w3.org/2000/svg" width="20" height="20" fill="none" viewBox="0 0 48 48">
  <g>
    <path fill="currentColor" d="M42.4 8c.56 0 .84 0 1.054.109a1 1 0 0 1 .437.437C44 8.76 44 9.04 44 9.6v.8c0 .56 0 .84-.109 1.054a1 1 0 0 1-.437.437C43.24 12 42.96 12 42.4 12H5.6c-.56 0-.84 0-1.054-.109a1 1 0 0 1-.437-.437C4 11.24 4 10.96 4 10.4v-.8c0-.56 0-.84.109-1.054a1 1 0 0 1 .437-.437C4.76 8 5.04 8 5.6 8h36.8ZM42.4 22c.56 0 .84 0 1.054.109a1 1 0 0 1 .437.437C44 22.76 44 23.04 44 23.6v.8c0 .56 0 .84-.109 1.054a1 1 0 0 1-.437.437C43.24 26 42.96 26 42.4 26H19.6c-.56 0-.84 0-1.054-.109a1 1 0 0 1-.437-.437C18 25.24 18 24.96 18 24.4v-.8c0-.56 0-.84.109-1.054a1 1 0 0 1 .437-.437C18.76 22 19.04 22 19.6 22h22.8ZM43.454 36.109C43.24 36 42.96 36 42.4 36H9.6c-.56 0-.84 0-1.054.109a1 1 0 0 0-.437.437C8 36.76 8 37.04 8 37.6v.8c0 .56 0 .84.109 1.054a1 1 0 0 0 .437.437C8.76 40 9.04 40 9.6 40h32.8c.56 0 .84 0 1.054-.109a1 1 0 0 0 .437-.437C44 39.24 44 38.96 44 38.4v-.8c0-.56 0-.84-.109-1.054a1 1 0 0 0-.437-.437Z" data-follow-fill="currentColor"></path>
  </g>
</svg>