<svg t="1749006540675" viewBox="0 0 1024 1024" version="1.1" fill="currentColor"
  xmlns="http://www.w3.org/2000/svg">
  <path d="M825.6 544c0 19.2-19.2 32-38.4 32H230.4c-19.2 0-38.4-12.8-38.4-32s19.2-32 38.4-32h556.8c19.2 0 38.4 12.8 38.4 32z m-38.4 224H230.4c-19.2 0-38.4 12.8-38.4 32s19.2 32 38.4 32h556.8c19.2 0 38.4-12.8 38.4-32s-19.2-32-38.4-32zM96 128c-19.2 0-32 12.8-32 32v704c0 19.2 12.8 32 32 32s32-12.8 32-32V160c0-19.2-12.8-32-32-32z m832 0c-19.2 0-32 12.8-32 32v704c0 19.2 12.8 32 32 32s32-12.8 32-32V160c0-19.2-12.8-32-32-32z m-195.2 73.6c-12.8-12.8-32-12.8-44.8 0-12.8 12.8-12.8 32 0 44.8l41.6 41.6H304l41.6-41.6c12.8-12.8 12.8-32 0-44.8-12.8-12.8-32-12.8-44.8 0l-89.6 89.6c-6.4 6.4-9.6 16-9.6 22.4 0 9.6 3.2 16 9.6 22.4l89.6 89.6c12.8 12.8 32 12.8 44.8 0 12.8-12.8 12.8-32 0-44.8L316.8 352H720l-32 32c-12.8 12.8-12.8 32 0 44.8 12.8 12.8 32 12.8 44.8 0l89.6-89.6c6.4-9.6 9.6-16 9.6-25.6s-3.2-16-9.6-22.4l-89.6-89.6z" p-id="3396"></path>
</svg>