<svg preserveAspectRatio="xMidYMid meet"
  xmlns="http://www.w3.org/2000/svg" width="20" height="20" fill="none" viewBox="0 0 48 48">  <!--?lit$3632127574$-->
  <g>
    <path fill="currentColor" d="M36.172 14H20c-6.627 0-12 5.373-12 12s5.373 12 12 12h18.4c.56 0 .84 0 1.054.109a1 1 0 0 1 .437.437C40 38.76 40 39.04 40 39.6v.8c0 .56 0 .84-.109 1.054a1 1 0 0 1-.437.437C39.24 42 38.96 42 38.4 42H20c-8.837 0-16-7.163-16-16s7.163-16 16-16h16.172l-3.455-3.454c-.396-.396-.594-.594-.668-.823a1 1 0 0 1 0-.618c.074-.228.272-.426.668-.822l.566-.566c.396-.396.594-.594.822-.668a1 1 0 0 1 .618 0c.229.074.427.272.823.668L41 9.172a4 4 0 0 1 0 5.656l-5.454 5.455c-.396.396-.594.594-.823.668a1 1 0 0 1-.618 0c-.228-.074-.426-.272-.822-.668l-.566-.566c-.396-.396-.594-.594-.668-.822a1 1 0 0 1 0-.618c.074-.229.272-.427.668-.823L36.172 14Z" data-follow-fill="currentColor"></path>
  </g>
</svg>