<svg preserveAspectRatio="xMidYMid meet"
  xmlns="http://www.w3.org/2000/svg" fill="none" viewBox="0 0 48 48">  <!--?lit$3632127574$-->
  <g>
    <path fill="currentColor" d="M12 14h16c6.628 0 12 5.373 12 12s-5.372 12-12 12H9.6c-.56 0-.84 0-1.054.109a1 1 0 0 0-.437.437C8 38.76 8 39.04 8 39.6v.8c0 .56 0 .84.11 1.054a1 1 0 0 0 .436.437C8.76 42 9.04 42 9.6 42H28c8.837 0 16-7.163 16-16s-7.163-16-16-16H12l3.454-3.454c.396-.396.594-.594.669-.823a1 1 0 0 0 0-.618c-.075-.228-.273-.426-.669-.822l-.565-.566c-.396-.396-.594-.594-.823-.668a1 1 0 0 0-.618 0c-.228.074-.426.272-.822.668L7.172 9.172a4 4 0 0 0 0 5.656l5.454 5.455c.396.396.594.594.822.668.201.065.418.065.618 0 .229-.074.427-.272.823-.668l.565-.566c.396-.396.594-.594.669-.822a1 1 0 0 0 0-.618c-.075-.229-.273-.427-.669-.823L12 14Z" data-follow-fill="currentColor"></path>
  </g>
</svg>