<svg xmlns="http://www.w3.org/2000/svg" width="22" height="22" fill="none" viewBox="0 0 24 24" class="text-[#2F3640]">
  <path fill="currentColor" fill-rule="evenodd" d="M19.486 1.539a3 3 0 1 1-2.923 3.669.8.8 0 0 1-.178.023 11.25 11.25 0 0 0-11.25 11.25q0 .023-.003.047a3 3 0 0 1 2.382 2.933l-.004.155a3 3 0 0 1-2.996 2.845l-.154-.003a3 3 0 0 1-2.842-2.842l-.005-.155c0-1.353.898-2.497 2.13-2.87a1 1 0 0 1-.008-.11 12.75 12.75 0 0 1 12.75-12.75.8.8 0 0 1 .205.032 3 3 0 0 1 2.896-2.224M4.514 17.96a1.5 1.5 0 1 0 0 3 1.5 1.5 0 0 0 0-3M19.486 3.138a1.401 1.401 0 1 0 .001 2.802 1.401 1.401 0 0 0-.001-2.802" clip-rule="evenodd"></path>
</svg>