<svg xmlns="http://www.w3.org/2000/svg"
  xmlns:xlink="http://www.w3.org/1999/xlink" t="1751872961695" class="icon" viewBox="0 0 1024 1024">
  <path d="M631.04 60.224V0h121.92A271.04 271.04 0 0 1 1024 271.04v122.88h-60.224v-122.88A210.816 210.816 0 0 0 752.96 60.224H631.04z m332.736 572.608H1024v120.128A271.04 271.04 0 0 1 752.96 1024H631.808v-60.224h121.152a210.816 210.816 0 0 0 210.816-210.816V632.832z m-569.856 330.88V1024h-122.88A271.04 271.04 0 0 1 0 752.96v-112.448h60.224v112.448a210.816 210.816 0 0 0 210.816 210.816h122.88zM60.16 399.936H0V270.976A271.04 271.04 0 0 1 271.04 0h123.712v60.224H271.04A210.816 210.816 0 0 0 60.224 271.04v128.768z" fill="currentColor" p-id="3218"/>
</svg>