<svg t="1750229282662" class="icon" viewBox="0 0 1024 1024" version="1.1"
  xmlns="http://www.w3.org/2000/svg" p-id="12512" data-spm-anchor-id="a313x.search_index.0.i2.5a903a81x9GRtR" width="200" height="200">
  <path d="M620.8 347.733333c0-6.4 0-14.933333-2.133333-21.333333-10.666667-46.933333-51.2-81.066667-100.266667-81.066667-21.333333 0-40.533333 6.4-57.6 17.066667-23.466667 14.933333-38.4 40.533333-42.666667 68.266667 0 6.4-2.133333 10.666667-2.133333 17.066666v42.666667h204.8v-42.666667zM672 435.2H362.666667c-23.466667 0-42.666667 19.2-42.666667 42.666667v209.066666c0 23.466667 19.2 42.666667 42.666667 42.666667h309.333333c23.466667 0 42.666667-19.2 42.666667-42.666667v-209.066666c0-23.466667-17.066667-42.666667-42.666667-42.666667z m-132.266667 149.333333v59.733334c0 10.666667-8.533333 21.333333-21.333333 21.333333s-21.333333-8.533333-21.333333-21.333333v-59.733334c-14.933333-8.533333-27.733333-23.466667-27.733334-42.666666 0-25.6 21.333333-49.066667 49.066667-49.066667s49.066667 21.333333 49.066667 49.066667c-2.133333 19.2-12.8 34.133333-27.733334 42.666666z" fill="#707070" p-id="12513" data-spm-anchor-id="a313x.search_index.0.i3.5a903a81x9GRtR" class="selected"></path>
  <path d="M512 59.733333c-247.466667 0-448 200.533333-448 448s200.533333 448 448 448 448-200.533333 448-448-200.533333-448-448-448z m245.333333 625.066667c0 46.933333-38.4 85.333333-85.333333 85.333333H362.666667c-46.933333 0-85.333333-38.4-85.333334-85.333333v-209.066667c0-46.933333 38.4-85.333333 85.333334-85.333333h10.666666v-42.666667c0-8.533333 0-17.066667 2.133334-25.6 6.4-38.4 29.866667-72.533333 61.866666-96 23.466667-17.066667 51.2-25.6 81.066667-25.6 68.266667 0 128 49.066667 142.933333 115.2 2.133333 8.533333 2.133333 19.2 2.133334 29.866667v42.666667h10.666666c46.933333 0 85.333333 38.4 85.333334 85.333333v211.2z" fill="#707070" p-id="12514" data-spm-anchor-id="a313x.search_index.0.i4.5a903a81x9GRtR" class="selected"></path>
</svg>